<svg width="256" height="256" viewBox="0 0 256 256" fill="none" xmlns="http://www.w3.org/2000/svg">
<g clip-path="url(#clip0_0_6725)">
<g clip-path="url(#clip1_0_6725)">
<g clip-path="url(#clip2_0_6725)">
<path fill-rule="evenodd" clip-rule="evenodd" d="M226.99 66.899L134.99 13.8787C130.664 11.3852 125.336 11.3852 121.01 13.8787L29.0098 66.899C24.6727 69.3986 22 74.0237 22 79.0298V176.986C22 181.992 24.6727 186.617 29.0098 189.117L121.01 242.137C125.336 244.63 130.664 244.63 134.99 242.137L226.99 189.117C231.327 186.617 234 181.992 234 176.986V79.0298C234 74.0237 231.327 69.3986 226.99 66.899ZM140.982 3.48086C132.947 -1.14987 123.053 -1.14987 115.018 3.48085L23.0182 56.5012C14.9635 61.1432 10 69.7328 10 79.0298V176.986C10 186.283 14.9635 194.872 23.0182 199.514L115.018 252.535C123.053 257.165 132.947 257.165 140.982 252.535L232.982 199.514C241.036 194.872 246 186.283 246 176.986V79.0298C246 69.7328 241.036 61.1432 232.982 56.5012L140.982 3.48086Z" fill="#29CCB1"/>
</g>
<path d="M144 172H170V164H68V84H188V144.24L190.046 143.094C191.26 142.415 192.74 142.415 193.954 143.094L196 144.24V82C196 78.6863 193.314 76 190 76H66C62.6863 76 60 78.6863 60 82V166C60 169.314 62.6863 172 66 172H112V180H100C97.7909 180 96 181.791 96 184C96 186.209 97.7909 188 100 188H156C158.209 188 160 186.209 160 184C160 181.791 158.209 180 156 180H144V172Z" fill="black"/>
<path fill-rule="evenodd" clip-rule="evenodd" d="M90 94C87.7909 94 86 95.7909 86 98V150C86 152.209 87.7909 154 90 154H166C168.209 154 170 152.209 170 150V98C170 95.7909 168.209 94 166 94H90ZM162 146H94V102H162V146Z" fill="black"/>
<path fill-rule="evenodd" clip-rule="evenodd" d="M190.15 148.962C191.309 148.359 192.69 148.36 193.848 148.966L205.852 155.238C207.172 155.928 208 157.29 208 158.779V172.84C208 181.281 197.213 186.755 193.353 188.444C192.483 188.824 191.516 188.824 190.647 188.444C186.787 186.754 176 181.274 176 172.8V158.746C176 157.254 176.831 155.888 178.155 155.2L190.15 148.962ZM188.385 174.266C189.167 175.047 190.433 175.047 191.214 174.266L201.105 164.374C201.887 163.593 201.881 162.321 201.1 161.54C200.319 160.759 199.047 160.753 198.265 161.534L189.8 170L186.974 167.174C186.193 166.393 184.921 166.399 184.14 167.18C183.359 167.961 183.353 169.233 184.134 170.014L188.385 174.266Z" fill="black"/>
</g>
</g>
<defs>
<clipPath id="clip0_0_6725">
<rect width="256" height="256" fill="white"/>
</clipPath>
<clipPath id="clip1_0_6725">
<rect width="256" height="256" fill="white"/>
</clipPath>
<clipPath id="clip2_0_6725">
<rect width="256" height="256" fill="white"/>
</clipPath>
</defs>
</svg>
